<svg preserveAspectRatio="none" overflow="visible" style="display: block;" width="11.5" height="14.8333" viewBox="0 0 11.5 14.8333" fill="none" xmlns="http://www.w3.org/2000/svg">
<g id="Group">
<path id="Vector" d="M5.75 14.0833C5.75 14.0833 10.75 10.0833 10.75 5.75C10.75 2.98867 8.51133 0.75 5.75 0.75C2.98867 0.75 0.75 2.98867 0.75 5.75C0.75 10.0833 5.75 14.0833 5.75 14.0833Z" stroke="#9DB0C9" stroke-width="1.5" stroke-linejoin="round"/>
<path id="Vector_2" d="M5.75 7.75C6.01264 7.75 6.27272 7.69827 6.51537 7.59776C6.75802 7.49725 6.9785 7.34993 7.16421 7.16421C7.34993 6.9785 7.49725 6.75802 7.59776 6.51537C7.69827 6.27272 7.75 6.01264 7.75 5.75C7.75 5.48736 7.69827 5.22728 7.59776 4.98463C7.49725 4.74198 7.34993 4.5215 7.16421 4.33579C6.9785 4.15007 6.75802 4.00275 6.51537 3.90224C6.27272 3.80173 6.01264 3.75 5.75 3.75C5.21957 3.75 4.71086 3.96071 4.33579 4.33579C3.96071 4.71086 3.75 5.21957 3.75 5.75C3.75 6.28043 3.96071 6.78914 4.33579 7.16421C4.71086 7.53929 5.21957 7.75 5.75 7.75Z" stroke="#9DB0C9" stroke-width="1.5" stroke-linejoin="round"/>
</g>
</svg>
